<svg xmlns="http://www.w3.org/2000/svg" viewBox="0 0 500 500"><g id="freepik--Shadow--inject-48"><ellipse id="freepik--path--inject-48" cx="250" cy="416.24" rx="193.89" ry="11.32" style="fill:#f5f5f5"></ellipse></g><g id="freepik--petrol-machine-2--inject-48"><rect x="335.48" y="236.61" width="19.74" height="179.14" style="fill:#2D600F"></rect><rect x="351.8" y="236.61" width="3.42" height="179.14" style="fill:#fff;opacity:0.2"></rect><rect x="276.65" y="264.68" width="70.61" height="151.07" style="fill:#263238"></rect><rect x="276.65" y="264.68" width="70.61" height="151.07" style="fill:#fff;opacity:0.2"></rect><rect x="268.25" y="236.61" width="19.74" height="179.14" style="fill:#2D600F"></rect><rect x="284.57" y="236.61" width="3.42" height="179.14" style="fill:#fff;opacity:0.2"></rect><rect x="265.19" y="201.96" width="93.48" height="38.13" style="fill:#2D600F"></rect><rect x="265.19" y="201.96" width="93.48" height="38.13" style="fill:#fff;opacity:0.5"></rect><rect x="286.28" y="201.96" width="72.4" height="38.13" style="fill:#fff;opacity:0.6000000000000001"></rect><rect x="294.83" y="272.78" width="48.25" height="142.97" style="fill:#2D600F"></rect><rect x="294.83" y="272.78" width="48.25" height="142.97" style="fill:#fff;opacity:0.6000000000000001"></rect><rect x="302.68" y="280.38" width="34.96" height="24.38" style="opacity:0.2"></rect><rect x="270.57" y="290.03" width="9.25" height="45.39" rx="1.68" style="fill:#263238"></rect><rect x="270.57" y="290.03" width="9.25" height="45.39" rx="1.68" style="fill:#fff;opacity:0.2"></rect><path d="M273.14,329.84h1.69a1.1,1.1,0,0,0,1.1-1.1V321a1.09,1.09,0,0,1,1.09-1.1h0a1.09,1.09,0,0,0,1.1-1.09v-26a1.09,1.09,0,0,0-1.1-1.09h-3.88a1.09,1.09,0,0,0-1.1,1.09v35.94A1.1,1.1,0,0,0,273.14,329.84Z" style="fill:#263238"></path><rect x="272.7" y="338.96" width="5.42" height="7.4" rx="1.61" style="fill:#263238"></rect><rect x="272.7" y="338.96" width="5.42" height="7.4" rx="1.61" style="fill:#fff;opacity:0.2"></rect><path d="M266.73,408.8a7.05,7.05,0,0,1-7-7.05V330.6a1.44,1.44,0,0,1,2.88,0v71.15a4.16,4.16,0,1,0,8.32,0V345.12a4.2,4.2,0,0,1,4.19-4.19,1.45,1.45,0,0,1,0,2.89,1.31,1.31,0,0,0-1.31,1.3v56.63A7,7,0,0,1,266.73,408.8Z" style="fill:#263238"></path><path d="M274.58,294l-7.17,7.88a9.08,9.08,0,0,0-1.76,2.88l-2.56,6.86,2.51.32,2.19-5.84a9,9,0,0,1,1.7-2.8L276,296a1.24,1.24,0,0,0,.5-1.35v0A1.26,1.26,0,0,0,274.58,294Z" style="fill:#263238"></path><path d="M274.58,294l-7.17,7.88a9.08,9.08,0,0,0-1.76,2.88l-2.56,6.86,2.51.32,2.19-5.84a9,9,0,0,1,1.7-2.8L276,296a1.24,1.24,0,0,0,.5-1.35v0A1.26,1.26,0,0,0,274.58,294Z" style="fill:#fff;opacity:0.5"></path><path d="M264.54,307.88l2.43.37a1.09,1.09,0,0,1,.83.62l2.95,6.51a2.9,2.9,0,0,1,.11,2.07l-2.92,9a1.1,1.1,0,0,1-1.2.74l-7.44-1.12a1.13,1.13,0,0,1-.81-.59l-.52-1a2,2,0,0,1-.08-1.66l5.47-14.19A1.08,1.08,0,0,1,264.54,307.88Z" style="fill:#2D600F"></path><path d="M264.54,307.88l2.43.37a1.09,1.09,0,0,1,.83.62l2.95,6.51a2.9,2.9,0,0,1,.11,2.07l-2.92,9a1.1,1.1,0,0,1-1.2.74l-7.44-1.12a1.13,1.13,0,0,1-.81-.59l-.52-1a2,2,0,0,1-.08-1.66l5.47-14.19A1.08,1.08,0,0,1,264.54,307.88Z" style="opacity:0.2"></path><path d="M259.86,324.59l2.4.36a.62.62,0,0,1,.19.07l3.17,1.73a.58.58,0,0,1,.16.88L263,330.78a.76.76,0,0,1-.71.27l-2.15-.33a.78.78,0,0,1-.67-.73l-.27-4.8A.57.57,0,0,1,259.86,324.59Z" style="fill:#263238"></path><path d="M259.86,324.59l2.4.36a.62.62,0,0,1,.19.07l3.17,1.73a.58.58,0,0,1,.16.88L263,330.78a.76.76,0,0,1-.71.27l-2.15-.33a.78.78,0,0,1-.67-.73l-.27-4.8A.57.57,0,0,1,259.86,324.59Z" style="fill:#fff;opacity:0.5"></path><rect x="302.68" y="307.39" width="34.96" height="20.36" style="fill:#263238"></rect><rect x="302.68" y="307.39" width="34.96" height="20.36" style="fill:#fff;opacity:0.2"></rect><rect x="305.25" y="309.51" width="1.76" height="1.76" style="fill:#fff;opacity:0.2"></rect><rect x="308.01" y="309.51" width="1.76" height="1.76" style="fill:#fff;opacity:0.2"></rect><rect x="310.78" y="309.51" width="1.76" height="1.76" style="fill:#fff;opacity:0.2"></rect><rect x="305.25" y="312.17" width="1.76" height="1.76" style="fill:#fff;opacity:0.2"></rect><rect x="308.01" y="312.17" width="1.76" height="1.76" style="fill:#fff;opacity:0.2"></rect><rect x="310.78" y="312.17" width="1.76" height="1.76" style="fill:#fff;opacity:0.2"></rect><rect x="305.25" y="314.83" width="1.76" height="1.76" style="fill:#fff;opacity:0.2"></rect><rect x="308.01" y="314.83" width="1.76" height="1.76" style="fill:#fff;opacity:0.2"></rect><rect x="310.78" y="314.83" width="1.76" height="1.76" style="fill:#fff;opacity:0.2"></rect><rect x="305.25" y="317.49" width="1.76" height="1.76" style="fill:#fff;opacity:0.2"></rect><rect x="308.01" y="317.49" width="1.76" height="1.76" style="fill:#fff;opacity:0.2"></rect><rect x="310.78" y="317.49" width="1.76" height="1.76" style="fill:#fff;opacity:0.2"></rect><rect x="313.47" y="309.51" width="2.72" height="1.76" style="fill:#fff;opacity:0.2"></rect><rect x="313.47" y="312.17" width="2.72" height="1.76" style="fill:#fff;opacity:0.2"></rect><rect x="313.47" y="314.83" width="2.72" height="1.76" style="fill:#fff;opacity:0.2"></rect><polygon points="309.21 320.15 308.01 320.15 305.25 320.15 305.25 321.9 308.01 321.9 309.21 321.9 309.77 321.9 309.77 320.15 309.21 320.15" style="fill:#fff;opacity:0.2"></polygon><rect x="310.78" y="320.15" width="1.76" height="1.76" style="fill:#fff;opacity:0.2"></rect><polygon points="313.47 317.49 313.47 320.15 313.47 320.62 313.47 321.9 316.19 321.9 316.19 320.62 316.19 320.15 316.19 317.49 313.47 317.49" style="fill:#fff;opacity:0.2"></polygon><rect x="324.59" y="309.51" width="1.76" height="1.76" style="fill:#fff;opacity:0.2"></rect><rect x="327.35" y="309.51" width="1.76" height="1.76" style="fill:#fff;opacity:0.2"></rect><rect x="330.11" y="309.51" width="1.76" height="1.76" style="fill:#fff;opacity:0.2"></rect><rect x="324.59" y="312.17" width="1.76" height="1.76" style="fill:#fff;opacity:0.2"></rect><rect x="327.35" y="312.17" width="1.76" height="1.76" style="fill:#fff;opacity:0.2"></rect><rect x="330.11" y="312.17" width="1.76" height="1.76" style="fill:#fff;opacity:0.2"></rect><rect x="324.59" y="314.83" width="1.76" height="1.76" style="fill:#fff;opacity:0.2"></rect><rect x="327.35" y="314.83" width="1.76" height="1.76" style="fill:#fff;opacity:0.2"></rect><rect x="330.11" y="314.83" width="1.76" height="1.76" style="fill:#fff;opacity:0.2"></rect><rect x="324.59" y="317.49" width="1.76" height="1.76" style="fill:#fff;opacity:0.2"></rect><rect x="327.35" y="317.49" width="1.76" height="1.76" style="fill:#fff;opacity:0.2"></rect><rect x="330.11" y="317.49" width="1.76" height="1.76" style="fill:#fff;opacity:0.2"></rect><rect x="332.8" y="309.51" width="2.72" height="1.76" style="fill:#fff;opacity:0.2"></rect><rect x="332.8" y="312.17" width="2.72" height="1.76" style="fill:#fff;opacity:0.2"></rect><rect x="332.8" y="314.83" width="2.72" height="1.76" style="fill:#fff;opacity:0.2"></rect><polygon points="328.54 320.15 327.35 320.15 324.59 320.15 324.59 321.9 327.35 321.9 328.54 321.9 329.11 321.9 329.11 320.15 328.54 320.15" style="fill:#fff;opacity:0.2"></polygon><rect x="330.11" y="320.15" width="1.76" height="1.76" style="fill:#fff;opacity:0.2"></rect><polygon points="332.8 317.49 332.8 320.15 332.8 320.62 332.8 321.9 335.52 321.9 335.52 320.62 335.52 320.15 335.52 317.49 332.8 317.49" style="fill:#fff;opacity:0.2"></polygon><rect x="318.07" y="309.51" width="4.56" height="3.99" style="opacity:0.2"></rect><rect x="318.07" y="314.83" width="4.56" height="3.99" style="opacity:0.2"></rect><rect x="305.23" y="322.93" width="10.95" height="3.24" style="opacity:0.2"></rect><rect x="324.59" y="322.93" width="10.95" height="3.24" style="opacity:0.2"></rect><rect x="302.68" y="328.49" width="34.96" height="87.26" style="fill:#fff;opacity:0.2"></rect><rect x="302.68" y="282.34" width="31.48" height="20.9" style="fill:#fff;opacity:0.7000000000000001"></rect><polygon points="337.64 280.38 334.16 282.34 334.16 303.24 337.64 304.76 337.64 280.38" style="fill:#fff;opacity:0.2"></polygon><rect x="294.83" y="272.78" width="1.77" height="142.97" style="opacity:0.2"></rect><polygon points="303.57 206.08 303.57 219.25 290.4 219.25 303.57 206.08" style="fill:#fff;opacity:0.6000000000000001"></polygon><polygon points="290.4 206.08 290.4 219.25 303.57 206.08 290.4 206.08" style="fill:#2D600F"></polygon><polygon points="290.4 219.25 303.57 219.25 290.4 206.08 290.4 219.25" style="opacity:0.2"></polygon><polygon points="358.68 201.96 286.28 240.09 358.68 240.09 358.68 201.96" style="fill:#2D600F"></polygon><polygon points="358.68 201.96 286.28 240.09 358.68 240.09 358.68 201.96" style="opacity:0.2"></polygon><polygon points="358.68 240.09 303.95 230.79 358.68 201.96 358.68 240.09" style="opacity:0.2"></polygon><rect x="345.35" y="222.16" width="8.87" height="4.18" rx="1.08" style="fill:#fff;opacity:0.5"></rect><path d="M353.15,230.4h-16a1.08,1.08,0,0,1-1.07-1.08h0a1.08,1.08,0,0,1,1.07-1.08h16a1.08,1.08,0,0,1,1.08,1.08h0A1.08,1.08,0,0,1,353.15,230.4Z" style="fill:#fff;opacity:0.5"></path><polygon points="351.81 240.09 335.54 254.08 335.54 240.09 351.81 240.09" style="opacity:0.2"></polygon><polygon points="347.26 264.68 351.81 415.75 347.26 415.75 347.26 264.68" style="opacity:0.2"></polygon></g><g id="freepik--Canopy--inject-48"><rect x="224.39" y="138.04" width="30.36" height="277.71" style="fill:#263238"></rect><rect x="236.93" y="138.04" width="17.82" height="277.71" style="fill:#fff;opacity:0.2"></rect><rect x="80.08" y="131.39" width="318.98" height="24.78" style="fill:#2D600F"></rect><rect x="164.27" y="131.39" width="234.8" height="24.78" style="fill:#fff;opacity:0.2"></rect><rect x="76.19" y="156.18" width="326.76" height="4.16" style="fill:#2D600F"></rect><rect x="76.19" y="156.18" width="326.76" height="4.16" style="fill:#fff;opacity:0.5"></rect><rect x="161.81" y="156.18" width="241.14" height="4.16" style="fill:#fff;opacity:0.6000000000000001"></rect><rect x="76.19" y="129.28" width="326.76" height="4.16" style="fill:#2D600F"></rect><rect x="76.19" y="129.28" width="326.76" height="4.16" style="fill:#fff;opacity:0.5"></rect><rect x="161.81" y="129.28" width="241.14" height="4.16" style="fill:#fff;opacity:0.6000000000000001"></rect><path d="M236.38,140.67v3h4.77v1.55h-4.77V149h-1.84v-9.88h7.21v1.54Z" style="fill:#fff"></path><path d="M243.45,144.71v-5.58h1.83v5.51c0,2,.92,2.9,2.51,2.9s2.5-.87,2.5-2.9v-5.51h1.81v5.58c0,2.88-1.63,4.44-4.32,4.44S243.45,147.59,243.45,144.71Z" style="fill:#fff"></path><path d="M262.07,147.47V149h-7.4v-9.88h7.21v1.54H256.5v2.57h4.77v1.51H256.5v2.72Z" style="fill:#fff"></path><path d="M264.12,139.13H266v8.33h5.17V149h-7Z" style="fill:#fff"></path><path d="M275.63,148l.64-1.43a5.45,5.45,0,0,0,3.26,1.09c1.54,0,2.19-.55,2.19-1.29,0-2.13-5.87-.73-5.87-4.4,0-1.59,1.27-2.95,4-2.95a6.18,6.18,0,0,1,3.28.88l-.57,1.42a5.53,5.53,0,0,0-2.73-.77c-1.52,0-2.14.59-2.14,1.34,0,2.1,5.85.73,5.85,4.36,0,1.58-1.28,2.93-4,2.93A6.42,6.42,0,0,1,275.63,148Z" style="fill:#fff"></path><path d="M287.21,140.69h-3.28v-1.56h8.38v1.56H289V149h-1.83Z" style="fill:#fff"></path><path d="M299.61,146.73h-4.94l-1,2.28h-1.89l4.44-9.88h1.81l4.46,9.88H300.6Zm-.61-1.44L297.14,141l-1.85,4.32Z" style="fill:#fff"></path><path d="M305.28,140.69H302v-1.56h8.38v1.56h-3.27V149h-1.84Z" style="fill:#fff"></path><path d="M311.77,139.13h1.84V149h-1.84Z" style="fill:#fff"></path><path d="M315.57,144.07a5.33,5.33,0,1,1,5.32,5.08A5.06,5.06,0,0,1,315.57,144.07Zm8.79,0a3.47,3.47,0,1,0-3.47,3.47A3.36,3.36,0,0,0,324.36,144.07Z" style="fill:#fff"></path><path d="M336.94,139.13V149h-1.51L330,142.32V149h-1.82v-9.88h1.51l5.44,6.69v-6.69Z" style="fill:#fff"></path><rect x="80.08" y="139.13" width="148.2" height="1.84" style="fill:#fff;opacity:0.5"></rect><rect x="80.08" y="142.87" width="148.2" height="1.84" style="fill:#fff;opacity:0.5"></rect><rect x="80.08" y="146.6" width="148.2" height="1.84" style="fill:#fff;opacity:0.5"></rect><rect x="342.01" y="139.13" width="57.05" height="1.83" style="fill:#fff;opacity:0.5"></rect><rect x="342.01" y="142.87" width="57.05" height="1.83" style="fill:#fff;opacity:0.5"></rect><rect x="342.01" y="146.6" width="57.05" height="1.83" style="fill:#fff;opacity:0.5"></rect></g><g id="freepik--petrol-machine-1--inject-48"><rect x="186.61" y="236.61" width="19.74" height="179.14" style="fill:#2D600F"></rect><rect x="202.93" y="236.61" width="3.42" height="179.14" style="fill:#fff;opacity:0.2"></rect><rect x="127.78" y="264.68" width="70.61" height="151.07" style="fill:#263238"></rect><rect x="127.78" y="264.68" width="70.61" height="151.07" style="fill:#fff;opacity:0.2"></rect><rect x="119.37" y="236.61" width="19.74" height="179.14" style="fill:#2D600F"></rect><rect x="135.7" y="236.61" width="3.42" height="179.14" style="fill:#fff;opacity:0.2"></rect><rect x="116.32" y="201.96" width="93.48" height="38.13" style="fill:#2D600F"></rect><rect x="116.32" y="201.96" width="93.48" height="38.13" style="fill:#fff;opacity:0.5"></rect><rect x="137.41" y="201.96" width="72.39" height="38.13" style="fill:#fff;opacity:0.6000000000000001"></rect><rect x="145.95" y="272.78" width="48.25" height="142.97" style="fill:#2D600F"></rect><rect x="145.95" y="272.78" width="48.25" height="142.97" style="fill:#fff;opacity:0.6000000000000001"></rect><rect x="153.81" y="280.38" width="34.96" height="24.38" style="opacity:0.2"></rect><rect x="121.7" y="290.03" width="9.25" height="45.39" rx="1.68" style="fill:#263238"></rect><rect x="121.7" y="290.03" width="9.25" height="45.39" rx="1.68" style="fill:#fff;opacity:0.2"></rect><path d="M124.26,329.84H126a1.09,1.09,0,0,0,1.09-1.1V321a1.1,1.1,0,0,1,1.1-1.1h0a1.09,1.09,0,0,0,1.09-1.09v-26a1.09,1.09,0,0,0-1.09-1.09h-3.89a1.09,1.09,0,0,0-1.09,1.09v35.94A1.09,1.09,0,0,0,124.26,329.84Z" style="fill:#263238"></path><rect x="123.82" y="338.96" width="5.42" height="7.4" rx="1.61" style="fill:#263238"></rect><rect x="123.82" y="338.96" width="5.42" height="7.4" rx="1.61" style="fill:#fff;opacity:0.2"></rect><path d="M117.86,408.8a7.05,7.05,0,0,1-7-7.05V330.6a1.45,1.45,0,0,1,2.89,0v71.15a4.16,4.16,0,1,0,8.32,0V345.12a4.2,4.2,0,0,1,4.19-4.19,1.45,1.45,0,0,1,0,2.89,1.31,1.31,0,0,0-1.31,1.3v56.63A7.05,7.05,0,0,1,117.86,408.8Z" style="fill:#263238"></path><path d="M125.71,294l-7.17,7.88a8.73,8.73,0,0,0-1.76,2.88l-2.57,6.86,2.52.32,2.19-5.84a9,9,0,0,1,1.69-2.8l6.55-7.34a1.24,1.24,0,0,0,.5-1.35v0A1.26,1.26,0,0,0,125.71,294Z" style="fill:#263238"></path><path d="M125.71,294l-7.17,7.88a8.73,8.73,0,0,0-1.76,2.88l-2.57,6.86,2.52.32,2.19-5.84a9,9,0,0,1,1.69-2.8l6.55-7.34a1.24,1.24,0,0,0,.5-1.35v0A1.26,1.26,0,0,0,125.71,294Z" style="fill:#fff;opacity:0.5"></path><path d="M115.66,307.88l2.43.37a1.07,1.07,0,0,1,.83.62l3,6.51a2.85,2.85,0,0,1,.12,2.07l-2.93,9a1.09,1.09,0,0,1-1.2.74l-7.43-1.12a1.13,1.13,0,0,1-.81-.59l-.53-1a2.13,2.13,0,0,1-.08-1.66l5.47-14.19A1.09,1.09,0,0,1,115.66,307.88Z" style="fill:#2D600F"></path><path d="M115.66,307.88l2.43.37a1.07,1.07,0,0,1,.83.62l3,6.51a2.85,2.85,0,0,1,.12,2.07l-2.93,9a1.09,1.09,0,0,1-1.2.74l-7.43-1.12a1.13,1.13,0,0,1-.81-.59l-.53-1a2.13,2.13,0,0,1-.08-1.66l5.47-14.19A1.09,1.09,0,0,1,115.66,307.88Z" style="opacity:0.2"></path><path d="M111,324.59l2.39.36a.62.62,0,0,1,.19.07l3.18,1.73a.57.57,0,0,1,.15.88l-2.76,3.15a.78.78,0,0,1-.71.27l-2.15-.33a.78.78,0,0,1-.67-.73l-.28-4.8A.58.58,0,0,1,111,324.59Z" style="fill:#263238"></path><path d="M111,324.59l2.39.36a.62.62,0,0,1,.19.07l3.18,1.73a.57.57,0,0,1,.15.88l-2.76,3.15a.78.78,0,0,1-.71.27l-2.15-.33a.78.78,0,0,1-.67-.73l-.28-4.8A.58.58,0,0,1,111,324.59Z" style="fill:#fff;opacity:0.5"></path><rect x="153.81" y="307.39" width="34.96" height="20.36" style="fill:#263238"></rect><rect x="153.81" y="307.39" width="34.96" height="20.36" style="fill:#fff;opacity:0.2"></rect><rect x="156.38" y="309.51" width="1.76" height="1.76" style="fill:#fff;opacity:0.2"></rect><rect x="159.14" y="309.51" width="1.76" height="1.76" style="fill:#fff;opacity:0.2"></rect><rect x="161.9" y="309.51" width="1.76" height="1.76" style="fill:#fff;opacity:0.2"></rect><rect x="156.38" y="312.17" width="1.76" height="1.76" style="fill:#fff;opacity:0.2"></rect><rect x="159.14" y="312.17" width="1.76" height="1.76" style="fill:#fff;opacity:0.2"></rect><rect x="161.9" y="312.17" width="1.76" height="1.76" style="fill:#fff;opacity:0.2"></rect><rect x="156.38" y="314.83" width="1.76" height="1.76" style="fill:#fff;opacity:0.2"></rect><rect x="159.14" y="314.83" width="1.76" height="1.76" style="fill:#fff;opacity:0.2"></rect><rect x="161.9" y="314.83" width="1.76" height="1.76" style="fill:#fff;opacity:0.2"></rect><rect x="156.38" y="317.49" width="1.76" height="1.76" style="fill:#fff;opacity:0.2"></rect><rect x="159.14" y="317.49" width="1.76" height="1.76" style="fill:#fff;opacity:0.2"></rect><rect x="161.9" y="317.49" width="1.76" height="1.76" style="fill:#fff;opacity:0.2"></rect><rect x="164.59" y="309.51" width="2.72" height="1.76" style="fill:#fff;opacity:0.2"></rect><rect x="164.59" y="312.17" width="2.72" height="1.76" style="fill:#fff;opacity:0.2"></rect><rect x="164.59" y="314.83" width="2.72" height="1.76" style="fill:#fff;opacity:0.2"></rect><polygon points="160.33 320.15 159.14 320.15 156.38 320.15 156.38 321.9 159.14 321.9 160.33 321.9 160.9 321.9 160.9 320.15 160.33 320.15" style="fill:#fff;opacity:0.2"></polygon><rect x="161.9" y="320.15" width="1.76" height="1.76" style="fill:#fff;opacity:0.2"></rect><polygon points="164.59 317.49 164.59 320.15 164.59 320.62 164.59 321.9 167.31 321.9 167.31 320.62 167.31 320.15 167.31 317.49 164.59 317.49" style="fill:#fff;opacity:0.2"></polygon><rect x="175.71" y="309.51" width="1.76" height="1.76" style="fill:#fff;opacity:0.2"></rect><rect x="178.47" y="309.51" width="1.76" height="1.76" style="fill:#fff;opacity:0.2"></rect><rect x="181.24" y="309.51" width="1.76" height="1.76" style="fill:#fff;opacity:0.2"></rect><rect x="175.71" y="312.17" width="1.76" height="1.76" style="fill:#fff;opacity:0.2"></rect><rect x="178.47" y="312.17" width="1.76" height="1.76" style="fill:#fff;opacity:0.2"></rect><rect x="181.24" y="312.17" width="1.76" height="1.76" style="fill:#fff;opacity:0.2"></rect><rect x="175.71" y="314.83" width="1.76" height="1.76" style="fill:#fff;opacity:0.2"></rect><rect x="178.47" y="314.83" width="1.76" height="1.76" style="fill:#fff;opacity:0.2"></rect><rect x="181.24" y="314.83" width="1.76" height="1.76" style="fill:#fff;opacity:0.2"></rect><rect x="175.71" y="317.49" width="1.76" height="1.76" style="fill:#fff;opacity:0.2"></rect><rect x="178.47" y="317.49" width="1.76" height="1.76" style="fill:#fff;opacity:0.2"></rect><rect x="181.24" y="317.49" width="1.76" height="1.76" style="fill:#fff;opacity:0.2"></rect><rect x="183.93" y="309.51" width="2.72" height="1.76" style="fill:#fff;opacity:0.2"></rect><rect x="183.93" y="312.17" width="2.72" height="1.76" style="fill:#fff;opacity:0.2"></rect><rect x="183.93" y="314.83" width="2.72" height="1.76" style="fill:#fff;opacity:0.2"></rect><polygon points="179.67 320.15 178.47 320.15 175.71 320.15 175.71 321.9 178.47 321.9 179.67 321.9 180.23 321.9 180.23 320.15 179.67 320.15" style="fill:#fff;opacity:0.2"></polygon><rect x="181.24" y="320.15" width="1.76" height="1.76" style="fill:#fff;opacity:0.2"></rect><polygon points="183.93 317.49 183.93 320.15 183.93 320.62 183.93 321.9 186.65 321.9 186.65 320.62 186.65 320.15 186.65 317.49 183.93 317.49" style="fill:#fff;opacity:0.2"></polygon><rect x="169.19" y="309.51" width="4.56" height="3.99" style="opacity:0.2"></rect><rect x="169.19" y="314.83" width="4.56" height="3.99" style="opacity:0.2"></rect><rect x="156.36" y="322.93" width="10.95" height="3.24" style="opacity:0.2"></rect><rect x="175.71" y="322.93" width="10.95" height="3.24" style="opacity:0.2"></rect><rect x="153.81" y="328.49" width="34.96" height="87.26" style="fill:#fff;opacity:0.2"></rect><rect x="153.81" y="282.34" width="31.48" height="20.9" style="fill:#fff;opacity:0.7000000000000001"></rect><polygon points="188.76 280.38 185.29 282.34 185.29 303.24 188.76 304.76 188.76 280.38" style="fill:#fff;opacity:0.2"></polygon><rect x="145.95" y="272.78" width="1.77" height="142.97" style="opacity:0.2"></rect><polygon points="154.7 206.08 154.7 219.25 141.52 219.25 154.7 206.08" style="fill:#fff;opacity:0.6000000000000001"></polygon><polygon points="141.52 206.08 141.52 219.25 154.7 206.08 141.52 206.08" style="fill:#2D600F"></polygon><polygon points="141.52 219.25 154.7 219.25 141.52 206.08 141.52 219.25" style="opacity:0.2"></polygon><polygon points="209.8 201.96 137.41 240.09 209.8 240.09 209.8 201.96" style="fill:#2D600F"></polygon><polygon points="209.8 201.96 137.41 240.09 209.8 240.09 209.8 201.96" style="opacity:0.2"></polygon><polygon points="209.8 240.09 155.07 230.79 209.8 201.96 209.8 240.09" style="opacity:0.2"></polygon><rect x="196.48" y="222.16" width="8.87" height="4.18" rx="1.08" style="fill:#fff;opacity:0.5"></rect><path d="M204.28,230.4h-16a1.08,1.08,0,0,1-1.08-1.08h0a1.08,1.08,0,0,1,1.08-1.08h16a1.08,1.08,0,0,1,1.07,1.08h0A1.08,1.08,0,0,1,204.28,230.4Z" style="fill:#fff;opacity:0.5"></path><polygon points="202.93 240.09 186.67 254.08 186.67 240.09 202.93 240.09" style="opacity:0.2"></polygon><polygon points="198.39 264.68 202.93 415.75 198.39 415.75 198.39 264.68" style="opacity:0.2"></polygon></g><g id="freepik--Plant--inject-48"><path d="M87.78,399.53s-4-8.79.57-17.47,6-10.71,3-12.49-4.28,6.94-4.28,6.94a19.59,19.59,0,0,1-.44-12.27c2-6.27,3.33-16.49.54-17.59s-.53,12.75-3,17.47a41,41,0,0,1-2.37-10.3c-.33-5,.19-13.08-2-15.15s-3.62-.63-1.45,10.49a117.06,117.06,0,0,1,2.15,20.16s-4.79-14.59-8-15-3.21,4.3-.46,8.39,8,11.44,8.92,15.22c0,0-5.25-11-10-7.61s4.11,10,8,12.39,6.67,17.42,6.67,17.42Z" style="fill:#2D600F"></path><path d="M87.78,399.53s-4-8.79.57-17.47,6-10.71,3-12.49-4.28,6.94-4.28,6.94a19.59,19.59,0,0,1-.44-12.27c2-6.27,3.33-16.49.54-17.59s-.53,12.75-3,17.47a41,41,0,0,1-2.37-10.3c-.33-5,.19-13.08-2-15.15s-3.62-.63-1.45,10.49a117.06,117.06,0,0,1,2.15,20.16s-4.79-14.59-8-15-3.21,4.3-.46,8.39,8,11.44,8.92,15.22c0,0-5.25-11-10-7.61s4.11,10,8,12.39,6.67,17.42,6.67,17.42Z" style="isolation:isolate;opacity:0.2"></path><path d="M84.6,403.14s3.92-8.85-.79-17.46-6.07-10.62-3.15-12.44S85,380.11,85,380.11a19.57,19.57,0,0,0,.29-12.28c-2.12-6.24-3.53-16.44-.75-17.58s.69,12.74,3.17,17.43A40.71,40.71,0,0,0,90,357.35c.28-5.05-.34-13.09,1.84-15.18s3.61-.69,1.57,10.46a116.84,116.84,0,0,0-1.91,20.19s4.61-14.66,7.82-15.13,3.26,4.25.56,8.39-7.91,11.56-8.74,15.35c0,0,5.12-11.06,9.89-7.76s-4,10.05-7.9,12.51-6.47,17.51-6.47,17.51Z" style="fill:#2D600F"></path><polygon points="97.8 398.99 74.38 398.99 76.28 415.75 95.91 415.75 97.8 398.99" style="fill:#263238"></polygon></g><g id="freepik--Vehicle--inject-48"><path d="M362.71,371.9h-7.89c-8.76,0-15.86,9.82-15.86,21.93s7.1,21.92,15.86,21.92h7.89c8.76,0,15.86-9.82,15.86-21.92S371.47,371.9,362.71,371.9Z"></path><path d="M365.19,373.46c-7.32,0-13.25,9.12-13.25,20.37s5.93,20.36,13.25,20.36,13.26-9.11,13.26-20.36S372.51,373.46,365.19,373.46Z" style="fill:#fff;opacity:0.1"></path><path d="M366.34,382.82c-4,0-7.16,4.93-7.16,11s3.2,11,7.16,11,7.16-4.92,7.16-11S370.3,382.82,366.34,382.82Z" style="fill:#263238;opacity:0.6000000000000001"></path><path d="M272,371.9h-7.89c-8.76,0-15.86,9.82-15.86,21.93s7.1,21.92,15.86,21.92H272c8.76,0,15.86-9.82,15.86-21.92S280.73,371.9,272,371.9Z"></path><path d="M274.45,373.46c-7.32,0-13.25,9.12-13.25,20.37s5.93,20.36,13.25,20.36,13.26-9.11,13.26-20.36S281.77,373.46,274.45,373.46Z" style="fill:#fff;opacity:0.1"></path><path d="M275.6,382.82c-4,0-7.16,4.93-7.16,11s3.2,11,7.16,11,7.16-4.92,7.16-11S279.56,382.82,275.6,382.82Z" style="fill:#263238;opacity:0.6000000000000001"></path><path d="M434.34,370.06l.11,22.56a6.52,6.52,0,0,1-6.52,6.55h-57.5a25.76,25.76,0,0,1-18.34,7.68h-36.8l-4.19-6.28h-8.38l-1.11,1.05a16.59,16.59,0,0,1-11.39,4.53h0a16.6,16.6,0,0,1-11.93-5.06l-.51-.52H258.64a6.5,6.5,0,0,1-6.41-5.39l-5.12-29.39Z"></path><path d="M438.4,390.31a4.44,4.44,0,0,1-1.19,3.2c-.66-14.65-9.53-26.25-20.36-26.25-11.19,0-20.27,12.36-20.4,27.68H361.87c-.14-15.32-9.21-27.68-20.4-27.68s-20.28,12.36-20.41,27.68h-75.4a2.44,2.44,0,0,1-2.23-1.45c-2.82-6.53-5.48-16.43-1.81-19,0,0,.29-1.41,1-3.56.25-.79.55-1.68.91-2.62s.69-1.69,1.09-2.59c.3-.64.61-1.3,1-2a34,34,0,0,1,4.16-6.34c.8-1,1.62-1.87,2.47-2.75.28-.27.54-.55.82-.83.75-.76,1.52-1.48,2.3-2.17a74.45,74.45,0,0,1,23.51-14s14.91-26.94,26.51-32.38c11.05-5.19,79.39-5.91,95.29-1a12.21,12.21,0,0,1,1.94.77c7.85,4.12,13.6,21.41,16.27,31,1.09,3.9,1.66,6.54,1.66,6.54S437.1,353.6,438.4,390.31Z" style="fill:#263238"></path><path d="M438.4,390.31a4.44,4.44,0,0,1-1.19,3.2c-.66-14.65-9.53-26.25-20.36-26.25-11.19,0-20.27,12.36-20.4,27.68H361.87c-.14-15.32-9.21-27.68-20.4-27.68s-20.28,12.36-20.41,27.68h-75.4a2.44,2.44,0,0,1-2.23-1.45c-2.82-6.53-5.48-16.43-1.81-19,0,0,.29-1.41,1-3.56.25-.79.55-1.68.91-2.62s.69-1.69,1.09-2.59c.3-.64.61-1.3,1-2a34,34,0,0,1,4.16-6.34c.8-1,1.62-1.87,2.47-2.75.28-.27.54-.55.82-.83.75-.76,1.52-1.48,2.3-2.17a74.45,74.45,0,0,1,23.51-14s14.91-26.94,26.51-32.38c11.05-5.19,79.39-5.91,95.29-1a12.21,12.21,0,0,1,1.94.77c7.85,4.12,13.6,21.41,16.27,31,1.09,3.9,1.66,6.54,1.66,6.54S437.1,353.6,438.4,390.31Z" style="fill:#fff;opacity:0.5"></path><path d="M341.77,371.9h-7.89c-8.76,0-15.86,9.82-15.86,21.93s7.1,21.92,15.86,21.92h7.89c8.76,0,15.86-9.82,15.86-21.92S350.53,371.9,341.77,371.9Z"></path><path d="M344.25,373.46c-7.32,0-13.25,9.12-13.25,20.37s5.93,20.36,13.25,20.36,13.26-9.11,13.26-20.36S351.57,373.46,344.25,373.46Z" style="fill:#fff;opacity:0.2"></path><path d="M345.4,382.82c-4,0-7.16,4.93-7.16,11s3.2,11,7.16,11,7.16-4.92,7.16-11S349.36,382.82,345.4,382.82Z" style="fill:#fff;opacity:0.2"></path><path d="M342.7,388.32c-2,0-3.58,2.47-3.58,5.51s1.6,5.5,3.58,5.5,3.58-2.46,3.58-5.5S344.68,388.32,342.7,388.32Z" style="fill:#263238"></path><path d="M355.3,305.72l-11.74,32s-51.76,2.47-61.71,0c0,0,11.4-21.68,21.4-28S355.3,305.72,355.3,305.72Z" style="fill:#2D600F"></path><path d="M415.76,371.9h-7.89c-8.76,0-15.86,9.82-15.86,21.93s7.1,21.92,15.86,21.92h7.89c8.76,0,15.86-9.82,15.86-21.92S424.52,371.9,415.76,371.9Z"></path><path d="M418.24,373.46c-7.32,0-13.25,9.12-13.25,20.37s5.93,20.36,13.25,20.36,13.25-9.11,13.25-20.36S425.56,373.46,418.24,373.46Z" style="fill:#fff;opacity:0.2"></path><path d="M419.39,382.82c-4,0-7.17,4.93-7.17,11s3.21,11,7.17,11,7.16-4.92,7.16-11S423.34,382.82,419.39,382.82Z" style="fill:#fff;opacity:0.2"></path><path d="M416.65,388.32c-1.88,0-3.41,2.35-3.41,5.25s1.53,5.25,3.41,5.25,3.42-2.35,3.42-5.25S418.54,388.32,416.65,388.32Z" style="fill:#263238"></path><path d="M355.3,305.72l-11.74,32s-51.76,2.47-61.71,0c0,0,11.4-21.68,21.4-28S355.3,305.72,355.3,305.72Z" style="opacity:0.4"></path><path d="M350.19,335.52s8.36-29.62,10.29-30.2,32.65-1,39.83,2,13.47,26.94,13.47,26.94S359.61,330.25,350.19,335.52Z" style="fill:#2D600F"></path><path d="M350.19,335.52s8.36-29.62,10.29-30.2,32.65-1,39.83,2,13.47,26.94,13.47,26.94S359.61,330.25,350.19,335.52Z" style="opacity:0.4"></path><path d="M311.45,379l-3.13,15.92h12.74c.14-15.32,9.22-27.68,20.41-27.68s20.27,12.36,20.4,27.68h34.58c.13-15.32,9.21-27.68,20.4-27.68,10.83,0,19.7,11.6,20.36,26.24a4.42,4.42,0,0,0,1.19-3.2c-1.3-36.7-17.92-47.61-17.92-47.61s-6.92-31.78-17.93-37.56a11.33,11.33,0,0,0-1.94-.77c-12.74-1-39.28-2.87-41-1.47-2.26,1.83-14.21,37.28-14.21,37.28-24.87,7.29-31,34.36-31,34.36l-7.06,2.62Z" style="isolation:isolate;opacity:0.1"></path><path d="M292.24,375.9,286,364.66a4,4,0,0,0-3.52-2.07H260.88a4,4,0,0,0-3.41,1.88l-7.69,12.24a4,4,0,0,0-.23,3.86l1.94,4.07a4,4,0,0,0,3.63,2.3h28.4a4,4,0,0,0,2.81-1.14l5.2-5.08A4,4,0,0,0,292.24,375.9Z" style="opacity:0.30000000000000004"></path><path d="M289.41,377.11H253.84a1,1,0,0,0-.48.11l-1,.5a1.09,1.09,0,0,0-.51,1.43l2.4,5.19a1.09,1.09,0,0,0,1,.63h29.54a1.11,1.11,0,0,0,.84-.4l4.67-5.69a1.1,1.1,0,0,0,.25-.69h0A1.08,1.08,0,0,0,289.41,377.11Z" style="fill:#263238"></path><path d="M241.62,374.53h8.47L242.6,371C241.91,373.11,241.62,374.53,241.62,374.53Z" style="opacity:0.2"></path><path d="M314.39,394.94h5.41a5.1,5.1,0,0,0,5-3.93c1.41-5.94,5.51-16.77,17-19.11,12.1-2.46,16.1,11.94,17.33,19.14a4.69,4.69,0,0,0,4.62,3.9H365s0-35.11-25.31-32.35c-17.86,1.94-22.9,28.55-22.9,28.55Z" style="fill:#263238"></path><path d="M314.39,394.94h5.41a5.1,5.1,0,0,0,5-3.93c1.41-5.94,5.51-16.77,17-19.11,12.1-2.46,16.1,11.94,17.33,19.14a4.69,4.69,0,0,0,4.62,3.9H365s0-35.11-25.31-32.35c-17.86,1.94-22.9,28.55-22.9,28.55Z" style="fill:#fff;opacity:0.5"></path><path d="M314.39,394.94h5.41a5.1,5.1,0,0,0,5-3.93c1.41-5.94,5.51-16.77,17-19.11,12.1-2.46,16.1,11.94,17.33,19.14a4.69,4.69,0,0,0,4.62,3.9H365s0-35.11-25.31-32.35c-17.86,1.94-22.9,28.55-22.9,28.55Z" style="isolation:isolate;opacity:0.2"></path><path d="M388.38,394.94h5.4a5.12,5.12,0,0,0,5-3.93c1.4-5.94,5.51-16.77,17-19.11,12.09-2.46,16.1,11.94,17.33,19.14a4.69,4.69,0,0,0,4.62,3.9H439s0-35.11-25.31-32.35c-17.85,1.94-22.9,28.55-22.9,28.55Z" style="fill:#263238"></path><path d="M388.38,394.94h5.4a5.12,5.12,0,0,0,5-3.93c1.4-5.94,5.51-16.77,17-19.11,12.09-2.46,16.1,11.94,17.33,19.14a4.69,4.69,0,0,0,4.62,3.9H439s0-35.11-25.31-32.35c-17.85,1.94-22.9,28.55-22.9,28.55Z" style="fill:#fff;opacity:0.5"></path><path d="M388.38,394.94h5.4a5.12,5.12,0,0,0,5-3.93c1.4-5.94,5.51-16.77,17-19.11,12.09-2.46,16.1,11.94,17.33,19.14a4.69,4.69,0,0,0,4.62,3.9H439s0-35.11-25.31-32.35c-17.85,1.94-22.9,28.55-22.9,28.55Z" style="isolation:isolate;opacity:0.2"></path><path d="M384.29,304.9s3.87,10.32,5.34,29.62l1.39.67s4.52,20.9,0,38.27c0,0,2-16-1.57-37.47l-1.07-.85s-1.71-17.86-5.39-30.24Z" style="opacity:0.30000000000000004"></path><path d="M347.81,337.7a107.32,107.32,0,0,1,1,23.12,106.84,106.84,0,0,0,.2-23.12Z" style="opacity:0.30000000000000004"></path><path d="M348.81,338.72c-1.6-1.36,2.45-6.9,2.45-6.9h4a45.45,45.45,0,0,0,4.31-1.89c.93-.59,7.8-1.26,7.68,0s.62,5.34-.85,6.06-9.76,0-9.76,0S350.49,340.13,348.81,338.72Z" style="fill:#263238"></path><path d="M349.76,336.4c1.5,1.27,7.05-2.44,7.05-2.44s7.42.64,8.74,0c1.08-.53.82-3.12.76-4.63-1.91-.34-6,.15-6.7.6a45.45,45.45,0,0,1-4.31,1.89h-4a24.79,24.79,0,0,0-1.58,2.48C349.37,335.2,349.29,336,349.76,336.4Z" style="fill:#fff;opacity:0.2"></path><path d="M324.09,307.43S308.61,322.82,306,333c0,0,2-10.34,5.41-16.47A59,59,0,0,0,299,336.66s-10.74.43-14.64-.67c0,0,14.94-22,21.71-25.61S324.09,307.43,324.09,307.43Z" style="fill:#fff;opacity:0.4"></path><path d="M388.18,344.45h0a2,2,0,0,1-2,2.16H383a2,2,0,0,1-2-2h0a2,2,0,0,1,2-2h3.26A2,2,0,0,1,388.18,344.45Z" style="fill:#263238"></path><path d="M298.14,370.06s-2.82-4.55-2.25-7.47,25.08-10.48,26.78-10.88,3.8,3,3.8,4.91-8.36,11.61-10.35,12.55S298.14,370.06,298.14,370.06Z" style="fill:#2D600F"></path><path d="M298.14,370.06s-2.82-4.55-2.25-7.47,25.08-10.48,26.78-10.88,3.8,3,3.8,4.91-8.36,11.61-10.35,12.55S298.14,370.06,298.14,370.06Z" style="fill:#fff;opacity:0.7000000000000001"></path><path d="M318.29,362.08c-.72,3.17-3.5,5.73-6.21,5.73s-4.32-2.56-3.59-5.73,3.5-5.74,6.21-5.74S319,358.91,318.29,362.08Z" style="fill:#fff;opacity:0.6000000000000001"></path><path d="M304.09,365.08a4.28,4.28,0,0,1-3.71,3.42c-1.61,0-2.57-1.54-2.14-3.42a4.26,4.26,0,0,1,3.71-3.42C303.56,361.66,304.52,363.19,304.09,365.08Z" style="fill:#fff;opacity:0.6000000000000001"></path><path d="M324.71,356.47a3.27,3.27,0,0,1-2.85,2.63c-1.24,0-2-1.17-1.65-2.63a3.28,3.28,0,0,1,2.85-2.62C324.3,353.85,325,355,324.71,356.47Z" style="fill:#fff;opacity:0.6000000000000001"></path><path d="M255.55,360.05c.12,1.39-4.94,8.1-4.94,8.1a46.15,46.15,0,0,1-6-2.39c.3-.64.61-1.3,1-2,.16-.32.33-.63.5-.95a33.72,33.72,0,0,1,3.66-5.39c.54-.65,1.09-1.28,1.67-1.89.26-.29.53-.58.8-.86C253.36,356.23,255.46,359.05,255.55,360.05Z" style="fill:#2D600F"></path><path d="M255.55,360.05c.12,1.39-4.94,8.1-4.94,8.1a46.15,46.15,0,0,1-6-2.39c.3-.64.61-1.3,1-2,.16-.32.33-.63.5-.95a33.72,33.72,0,0,1,3.66-5.39c.54-.65,1.09-1.28,1.67-1.89.26-.29.53-.58.8-.86C253.36,356.23,255.46,359.05,255.55,360.05Z" style="fill:#fff;opacity:0.7000000000000001"></path><path d="M253.26,362.5c-.7,1.72-2.12,3.4-3.15,3.77s-1.31-.73-.61-2.45,2.12-3.4,3.15-3.77S254,360.78,253.26,362.5Z" style="fill:#fff;opacity:0.6000000000000001"></path><path d="M251.05,358.35c-.88,2.16-2.65,4.27-3.94,4.72-.49.17-.86.09-1.06-.22a33.72,33.72,0,0,1,3.66-5.39c.54-.65,1.09-1.28,1.67-1.89A3.57,3.57,0,0,1,251.05,358.35Z" style="fill:#fff;opacity:0.6000000000000001"></path><path d="M294.53,388.91l2-3.09A1.82,1.82,0,0,1,298,385h7.11a1.83,1.83,0,0,1,1.81,2.14l-.55,3.1a1.83,1.83,0,0,1-1.8,1.51h-8.54A1.83,1.83,0,0,1,294.53,388.91Z" style="opacity:0.2"></path><path d="M244.35,385h2.06a1.08,1.08,0,0,1,1,.64l2,4.59a1.08,1.08,0,0,1-1,1.52h-2.65a1.08,1.08,0,0,1-1-.76l-1.42-4.59A1.07,1.07,0,0,1,244.35,385Z" style="opacity:0.2"></path><rect x="269.29" y="365.35" width="1.71" height="9.42" style="opacity:0.5"></rect><rect x="272.14" y="365.35" width="1.71" height="9.42" style="opacity:0.5"></rect><rect x="274.99" y="365.35" width="1.71" height="9.42" style="opacity:0.5"></rect><rect x="263.59" y="365.35" width="1.71" height="9.42" style="opacity:0.5"></rect><rect x="266.44" y="365.35" width="1.71" height="9.42" style="opacity:0.5"></rect><polygon points="286.39 370.56 286.39 374.76 288.93 374.76 286.39 370.56" style="opacity:0.5"></polygon><rect x="277.84" y="365.35" width="1.71" height="9.42" style="opacity:0.5"></rect><polygon points="262.45 365.35 261.32 365.35 258.63 374.76 262.45 374.76 262.45 365.35" style="opacity:0.5"></polygon><rect x="280.69" y="365.35" width="1.71" height="9.42" style="opacity:0.5"></rect><polygon points="285.25 368.68 283.54 365.86 283.54 374.76 285.25 374.76 285.25 368.68" style="opacity:0.5"></polygon><rect x="258.63" y="378.69" width="15.82" height="5.39" style="fill:#fff;opacity:0.6000000000000001"></rect><path d="M438.86,394.94h0a1.74,1.74,0,0,1-1.73-1.73v-9.68a1.73,1.73,0,0,1,1.73-1.73h0a1.73,1.73,0,0,1,1.73,1.73v9.68A1.74,1.74,0,0,1,438.86,394.94Z" style="fill:#263238"></path><path d="M286.39,358s13.25-13.3,36.07-17.28A137.23,137.23,0,0,0,286.39,358Z" style="isolation:isolate;opacity:0.2"></path><path d="M262.45,358s6.84-11.78,16.25-17.28C278.7,340.67,264.46,347.48,262.45,358Z" style="isolation:isolate;opacity:0.2"></path></g></svg>