<svg width="142" height="183" viewBox="0 0 142 183" fill="none" xmlns="http://www.w3.org/2000/svg">
<path d="M5.44 177.718L3.78 174.868H2.68V177.718H1.77V170.748H4.02C4.54667 170.748 4.99 170.838 5.35 171.018C5.71667 171.198 5.99 171.441 6.17 171.748C6.35 172.054 6.44 172.404 6.44 172.798C6.44 173.278 6.3 173.701 6.02 174.068C5.74667 174.434 5.33333 174.678 4.78 174.798L6.53 177.718H5.44ZM2.68 174.138H4.02C4.51333 174.138 4.88333 174.018 5.13 173.778C5.37667 173.531 5.5 173.204 5.5 172.798C5.5 172.384 5.37667 172.064 5.13 171.838C4.89 171.611 4.52 171.498 4.02 171.498H2.68V174.138ZM12.514 177.788C11.8673 177.788 11.2773 177.638 10.744 177.338C10.2107 177.031 9.78732 176.608 9.47398 176.068C9.16732 175.521 9.01398 174.908 9.01398 174.228C9.01398 173.548 9.16732 172.938 9.47398 172.398C9.78732 171.851 10.2107 171.428 10.744 171.128C11.2773 170.821 11.8673 170.668 12.514 170.668C13.1673 170.668 13.7607 170.821 14.294 171.128C14.8273 171.428 15.2473 171.848 15.554 172.388C15.8607 172.928 16.014 173.541 16.014 174.228C16.014 174.914 15.8607 175.528 15.554 176.068C15.2473 176.608 14.8273 177.031 14.294 177.338C13.7607 177.638 13.1673 177.788 12.514 177.788ZM12.514 176.998C13.0007 176.998 13.4373 176.884 13.824 176.658C14.2173 176.431 14.524 176.108 14.744 175.688C14.9707 175.268 15.084 174.781 15.084 174.228C15.084 173.668 14.9707 173.181 14.744 172.768C14.524 172.348 14.2207 172.024 13.834 171.798C13.4473 171.571 13.0073 171.458 12.514 171.458C12.0207 171.458 11.5807 171.571 11.194 171.798C10.8073 172.024 10.5007 172.348 10.274 172.768C10.054 173.181 9.94398 173.668 9.94398 174.228C9.94398 174.781 10.054 175.268 10.274 175.688C10.5007 176.108 10.8073 176.431 11.194 176.658C11.5873 176.884 12.0273 176.998 12.514 176.998ZM22.8353 176.168H19.7953L19.2353 177.718H18.2753L20.7953 170.788H21.8453L24.3553 177.718H23.3953L22.8353 176.168ZM22.5753 175.428L21.3153 171.908L20.0553 175.428H22.5753ZM29.1236 170.748C29.8836 170.748 30.5403 170.891 31.0936 171.178C31.6536 171.458 32.0803 171.861 32.3736 172.388C32.6736 172.914 32.8236 173.534 32.8236 174.248C32.8236 174.961 32.6736 175.581 32.3736 176.108C32.0803 176.628 31.6536 177.028 31.0936 177.308C30.5403 177.581 29.8836 177.718 29.1236 177.718H26.9536V170.748H29.1236ZM29.1236 176.968C30.0236 176.968 30.7103 176.731 31.1836 176.258C31.6569 175.778 31.8936 175.108 31.8936 174.248C31.8936 173.381 31.6536 172.704 31.1736 172.218C30.7003 171.731 30.0169 171.488 29.1236 171.488H27.8636V176.968H29.1236ZM41.8999 177.788C41.4399 177.788 41.0266 177.708 40.6599 177.548C40.2999 177.381 40.0166 177.154 39.8099 176.868C39.6033 176.574 39.4966 176.238 39.4899 175.858H40.4599C40.4933 176.184 40.6266 176.461 40.8599 176.688C41.0999 176.908 41.4466 177.018 41.8999 177.018C42.3333 177.018 42.6733 176.911 42.9199 176.698C43.1733 176.478 43.2999 176.198 43.2999 175.858C43.2999 175.591 43.2266 175.374 43.0799 175.208C42.9333 175.041 42.7499 174.914 42.5299 174.828C42.3099 174.741 42.0133 174.648 41.6399 174.548C41.1799 174.428 40.8099 174.308 40.5299 174.188C40.2566 174.068 40.0199 173.881 39.8199 173.628C39.6266 173.368 39.5299 173.021 39.5299 172.588C39.5299 172.208 39.6266 171.871 39.8199 171.578C40.0133 171.284 40.2833 171.058 40.6299 170.898C40.9833 170.738 41.3866 170.658 41.8399 170.658C42.4933 170.658 43.0266 170.821 43.4399 171.148C43.8599 171.474 44.0966 171.908 44.1499 172.448H43.1499C43.1166 172.181 42.9766 171.948 42.7299 171.748C42.4833 171.541 42.1566 171.438 41.7499 171.438C41.3699 171.438 41.0599 171.538 40.8199 171.738C40.5799 171.931 40.4599 172.204 40.4599 172.558C40.4599 172.811 40.5299 173.018 40.6699 173.178C40.8166 173.338 40.9933 173.461 41.1999 173.548C41.4133 173.628 41.7099 173.721 42.0899 173.828C42.5499 173.954 42.9199 174.081 43.1999 174.208C43.4799 174.328 43.7199 174.518 43.9199 174.778C44.1199 175.031 44.2199 175.378 44.2199 175.818C44.2199 176.158 44.1299 176.478 43.9499 176.778C43.7699 177.078 43.5033 177.321 43.1499 177.508C42.7966 177.694 42.3799 177.788 41.8999 177.788ZM47.9691 170.748V177.718H47.0591V170.748H47.9691ZM53.19 170.748C53.95 170.748 54.6067 170.891 55.16 171.178C55.72 171.458 56.1467 171.861 56.44 172.388C56.74 172.914 56.89 173.534 56.89 174.248C56.89 174.961 56.74 175.581 56.44 176.108C56.1467 176.628 55.72 177.028 55.16 177.308C54.6067 177.581 53.95 177.718 53.19 177.718H51.02V170.748H53.19ZM53.19 176.968C54.09 176.968 54.7767 176.731 55.25 176.258C55.7233 175.778 55.96 175.108 55.96 174.248C55.96 173.381 55.72 172.704 55.24 172.218C54.7667 171.731 54.0833 171.488 53.19 171.488H51.93V176.968H53.19ZM60.5003 171.488V173.818H63.0403V174.568H60.5003V176.968H63.3403V177.718H59.5903V170.738H63.3403V171.488H60.5003ZM74.5033 176.168H71.4633L70.9033 177.718H69.9433L72.4633 170.788H73.5133L76.0233 177.718H75.0633L74.5033 176.168ZM74.2433 175.428L72.9833 171.908L71.7233 175.428H74.2433ZM80.8316 177.788C80.3716 177.788 79.9582 177.708 79.5916 177.548C79.2316 177.381 78.9482 177.154 78.7416 176.868C78.5349 176.574 78.4282 176.238 78.4216 175.858H79.3916C79.4249 176.184 79.5582 176.461 79.7916 176.688C80.0316 176.908 80.3782 177.018 80.8316 177.018C81.2649 177.018 81.6049 176.911 81.8516 176.698C82.1049 176.478 82.2316 176.198 82.2316 175.858C82.2316 175.591 82.1582 175.374 82.0116 175.208C81.8649 175.041 81.6816 174.914 81.4616 174.828C81.2416 174.741 80.9449 174.648 80.5716 174.548C80.1116 174.428 79.7416 174.308 79.4616 174.188C79.1882 174.068 78.9516 173.881 78.7516 173.628C78.5582 173.368 78.4616 173.021 78.4616 172.588C78.4616 172.208 78.5582 171.871 78.7516 171.578C78.9449 171.284 79.2149 171.058 79.5616 170.898C79.9149 170.738 80.3182 170.658 80.7716 170.658C81.4249 170.658 81.9582 170.821 82.3716 171.148C82.7916 171.474 83.0282 171.908 83.0816 172.448H82.0816C82.0482 172.181 81.9082 171.948 81.6616 171.748C81.4149 171.541 81.0882 171.438 80.6816 171.438C80.3016 171.438 79.9916 171.538 79.7516 171.738C79.5116 171.931 79.3916 172.204 79.3916 172.558C79.3916 172.811 79.4616 173.018 79.6016 173.178C79.7482 173.338 79.9249 173.461 80.1316 173.548C80.3449 173.628 80.6416 173.721 81.0216 173.828C81.4816 173.954 81.8516 174.081 82.1316 174.208C82.4116 174.328 82.6516 174.518 82.8516 174.778C83.0516 175.031 83.1516 175.378 83.1516 175.818C83.1516 176.158 83.0616 176.478 82.8816 176.778C82.7016 177.078 82.4349 177.321 82.0816 177.508C81.7282 177.694 81.3116 177.788 80.8316 177.788ZM88.2007 177.788C87.7407 177.788 87.3274 177.708 86.9607 177.548C86.6007 177.381 86.3174 177.154 86.1107 176.868C85.904 176.574 85.7974 176.238 85.7907 175.858H86.7607C86.794 176.184 86.9274 176.461 87.1607 176.688C87.4007 176.908 87.7474 177.018 88.2007 177.018C88.634 177.018 88.974 176.911 89.2207 176.698C89.474 176.478 89.6007 176.198 89.6007 175.858C89.6007 175.591 89.5274 175.374 89.3807 175.208C89.234 175.041 89.0507 174.914 88.8307 174.828C88.6107 174.741 88.314 174.648 87.9407 174.548C87.4807 174.428 87.1107 174.308 86.8307 174.188C86.5574 174.068 86.3207 173.881 86.1207 173.628C85.9274 173.368 85.8307 173.021 85.8307 172.588C85.8307 172.208 85.9274 171.871 86.1207 171.578C86.314 171.284 86.584 171.058 86.9307 170.898C87.284 170.738 87.6874 170.658 88.1407 170.658C88.794 170.658 89.3274 170.821 89.7407 171.148C90.1607 171.474 90.3974 171.908 90.4507 172.448H89.4507C89.4174 172.181 89.2774 171.948 89.0307 171.748C88.784 171.541 88.4574 171.438 88.0507 171.438C87.6707 171.438 87.3607 171.538 87.1207 171.738C86.8807 171.931 86.7607 172.204 86.7607 172.558C86.7607 172.811 86.8307 173.018 86.9707 173.178C87.1174 173.338 87.294 173.461 87.5007 173.548C87.714 173.628 88.0107 173.721 88.3907 173.828C88.8507 173.954 89.2207 174.081 89.5007 174.208C89.7807 174.328 90.0207 174.518 90.2207 174.778C90.4207 175.031 90.5207 175.378 90.5207 175.818C90.5207 176.158 90.4307 176.478 90.2507 176.778C90.0707 177.078 89.804 177.321 89.4507 177.508C89.0974 177.694 88.6807 177.788 88.2007 177.788ZM94.2698 170.748V177.718H93.3598V170.748H94.2698ZM99.5308 177.788C99.0708 177.788 98.6574 177.708 98.2908 177.548C97.9308 177.381 97.6474 177.154 97.4408 176.868C97.2341 176.574 97.1274 176.238 97.1208 175.858H98.0908C98.1241 176.184 98.2574 176.461 98.4908 176.688C98.7308 176.908 99.0774 177.018 99.5308 177.018C99.9641 177.018 100.304 176.911 100.551 176.698C100.804 176.478 100.931 176.198 100.931 175.858C100.931 175.591 100.857 175.374 100.711 175.208C100.564 175.041 100.381 174.914 100.161 174.828C99.9408 174.741 99.6441 174.648 99.2708 174.548C98.8108 174.428 98.4408 174.308 98.1608 174.188C97.8874 174.068 97.6508 173.881 97.4508 173.628C97.2574 173.368 97.1608 173.021 97.1608 172.588C97.1608 172.208 97.2574 171.871 97.4508 171.578C97.6441 171.284 97.9141 171.058 98.2608 170.898C98.6141 170.738 99.0174 170.658 99.4708 170.658C100.124 170.658 100.657 170.821 101.071 171.148C101.491 171.474 101.727 171.908 101.781 172.448H100.781C100.747 172.181 100.607 171.948 100.361 171.748C100.114 171.541 99.7874 171.438 99.3808 171.438C99.0008 171.438 98.6908 171.538 98.4508 171.738C98.2108 171.931 98.0908 172.204 98.0908 172.558C98.0908 172.811 98.1608 173.018 98.3008 173.178C98.4474 173.338 98.6241 173.461 98.8308 173.548C99.0441 173.628 99.3408 173.721 99.7208 173.828C100.181 173.954 100.551 174.081 100.831 174.208C101.111 174.328 101.351 174.518 101.551 174.778C101.751 175.031 101.851 175.378 101.851 175.818C101.851 176.158 101.761 176.478 101.581 176.778C101.401 177.078 101.134 177.321 100.781 177.508C100.427 177.694 100.011 177.788 99.5308 177.788ZM108.98 170.748V171.488H107.08V177.718H106.17V171.488H104.26V170.748H108.98ZM115.72 176.168H112.68L112.12 177.718H111.16L113.68 170.788H114.73L117.24 177.718H116.28L115.72 176.168ZM115.46 175.428L114.2 171.908L112.94 175.428H115.46ZM125.318 177.718H124.408L120.748 172.168V177.718H119.838V170.738H120.748L124.408 176.278V170.738H125.318V177.718ZM128.03 174.228C128.03 173.548 128.183 172.938 128.49 172.398C128.796 171.851 129.213 171.424 129.74 171.118C130.273 170.811 130.863 170.658 131.51 170.658C132.27 170.658 132.933 170.841 133.5 171.208C134.066 171.574 134.48 172.094 134.74 172.768H133.65C133.456 172.348 133.176 172.024 132.81 171.798C132.45 171.571 132.016 171.458 131.51 171.458C131.023 171.458 130.586 171.571 130.2 171.798C129.813 172.024 129.51 172.348 129.29 172.768C129.07 173.181 128.96 173.668 128.96 174.228C128.96 174.781 129.07 175.268 129.29 175.688C129.51 176.101 129.813 176.421 130.2 176.648C130.586 176.874 131.023 176.988 131.51 176.988C132.016 176.988 132.45 176.878 132.81 176.658C133.176 176.431 133.456 176.108 133.65 175.688H134.74C134.48 176.354 134.066 176.871 133.5 177.238C132.933 177.598 132.27 177.778 131.51 177.778C130.863 177.778 130.273 177.628 129.74 177.328C129.213 177.021 128.796 176.598 128.49 176.058C128.183 175.518 128.03 174.908 128.03 174.228ZM138.504 171.488V173.818H141.044V174.568H138.504V176.968H141.344V177.718H137.594V170.738H141.344V171.488H138.504Z" fill="white"/>
<path d="M8.35938 168.547L5.625 166.75C5.3125 166.835 4.99023 166.877 4.6582 166.877C3.31706 166.877 2.29167 166.48 1.58203 165.686C0.878906 164.892 0.527344 163.733 0.527344 162.209V153.899C0.527344 152.421 0.888672 151.298 1.61133 150.53C2.34049 149.762 3.39193 149.377 4.76562 149.377C6.13932 149.377 7.1875 149.762 7.91016 150.53C8.63932 151.298 9.00391 152.421 9.00391 153.899V162.209C9.00391 163.629 8.6849 164.745 8.04688 165.559L9.52148 166.497L8.35938 168.547ZM4.76562 163.713C5.01302 163.713 5.1888 163.622 5.29297 163.44C5.40365 163.258 5.47201 163.033 5.49805 162.766C5.5306 162.499 5.54688 162.242 5.54688 161.995V153.958C5.54688 153.593 5.49479 153.267 5.39062 152.981C5.29297 152.688 5.07812 152.542 4.74609 152.542C4.40755 152.542 4.1862 152.685 4.08203 152.971C3.97786 153.251 3.92578 153.577 3.92578 153.948V162.063C3.92578 162.291 3.9388 162.535 3.96484 162.795C3.9974 163.049 4.07227 163.267 4.18945 163.45C4.30664 163.625 4.4987 163.713 4.76562 163.713ZM16.4082 166.877C15.627 166.877 15.028 166.715 14.6113 166.389C14.2012 166.064 13.9212 165.611 13.7715 165.032C13.6217 164.446 13.5469 163.762 13.5469 162.981V152.073H17.0625V162.571C17.0625 163.157 17.1081 163.567 17.1992 163.801C17.2904 164.029 17.5052 164.143 17.8438 164.143C18.2083 164.143 18.4362 163.98 18.5273 163.655C18.625 163.329 18.6738 162.909 18.6738 162.395V152.073H22.1602V166.721H18.6641V165.159C18.4427 165.719 18.1758 166.145 17.8633 166.438C17.5573 166.731 17.0723 166.877 16.4082 166.877ZM26.5469 151.174V148.264H30.043V151.174H26.5469ZM26.5469 166.721V152.073H30.043V166.721H26.5469ZM38.834 166.877C37.1934 166.877 36.028 166.458 35.3379 165.618C34.6543 164.778 34.3125 163.544 34.3125 161.917V157.405C34.3125 156.181 34.4427 155.162 34.7031 154.348C34.9635 153.534 35.4193 152.926 36.0703 152.522C36.7214 152.118 37.6263 151.917 38.7852 151.917C39.5924 151.917 40.3151 152.06 40.9531 152.346C41.5977 152.633 42.1055 153.053 42.4766 153.606C42.8477 154.159 43.0332 154.836 43.0332 155.637V157.874H39.4688V155.823C39.4688 155.484 39.4199 155.201 39.3223 154.973C39.2246 154.739 39.013 154.622 38.6875 154.622C38.1146 154.622 37.8281 155.028 37.8281 155.842V162.942C37.8281 163.241 37.8932 163.518 38.0234 163.772C38.1536 164.019 38.3685 164.143 38.668 164.143C38.974 164.143 39.1855 164.023 39.3027 163.782C39.4264 163.534 39.4883 163.248 39.4883 162.922V160.461H43.0332V163.02C43.0332 163.827 42.8509 164.521 42.4863 165.1C42.1283 165.673 41.6335 166.112 41.002 166.418C40.3704 166.724 39.6478 166.877 38.834 166.877ZM47.2539 166.721V149.534H50.7109V157.122L52.3906 152.073H56.0137L53.8164 158.44L56.6094 166.721H52.8887L50.7109 159.817V166.721H47.2539Z" fill="white"/>
<path d="M77.2812 166.721L78.9414 149.534H84.7715L86.4023 166.721H83.1504L82.9062 163.948H80.8359L80.6211 166.721H77.2812ZM81.0801 161.204H82.6426L81.8906 152.463H81.7344L81.0801 161.204ZM94.4121 166.877C91.5215 166.877 90.0762 165.413 90.0762 162.483V161.321H93.5918V163.04C93.5918 163.372 93.6569 163.632 93.7871 163.821C93.9173 164.01 94.1257 164.104 94.4121 164.104C94.9199 164.104 95.1738 163.723 95.1738 162.961C95.1738 162.323 95.0404 161.848 94.7734 161.536C94.5065 161.217 94.181 160.911 93.7969 160.618L91.9316 159.182C91.3457 158.726 90.8997 158.245 90.5938 157.737C90.2878 157.229 90.1348 156.523 90.1348 155.618C90.1348 154.778 90.3333 154.084 90.7305 153.538C91.1341 152.991 91.6647 152.584 92.3223 152.317C92.9863 152.05 93.7025 151.917 94.4707 151.917C97.3092 151.917 98.7285 153.333 98.7285 156.165V156.438H95.1152V155.881C95.1152 155.588 95.0632 155.305 94.959 155.032C94.8613 154.758 94.666 154.622 94.373 154.622C93.8783 154.622 93.6309 154.882 93.6309 155.403C93.6309 155.93 93.8392 156.344 94.2559 156.643L96.4238 158.225C97.1009 158.713 97.6673 159.293 98.123 159.963C98.5853 160.634 98.8164 161.526 98.8164 162.639C98.8164 164.019 98.4225 165.071 97.6348 165.793C96.8535 166.516 95.7793 166.877 94.4121 166.877ZM106.904 166.877C104.014 166.877 102.568 165.413 102.568 162.483V161.321H106.084V163.04C106.084 163.372 106.149 163.632 106.279 163.821C106.41 164.01 106.618 164.104 106.904 164.104C107.412 164.104 107.666 163.723 107.666 162.961C107.666 162.323 107.533 161.848 107.266 161.536C106.999 161.217 106.673 160.911 106.289 160.618L104.424 159.182C103.838 158.726 103.392 158.245 103.086 157.737C102.78 157.229 102.627 156.523 102.627 155.618C102.627 154.778 102.826 154.084 103.223 153.538C103.626 152.991 104.157 152.584 104.814 152.317C105.479 152.05 106.195 151.917 106.963 151.917C109.801 151.917 111.221 153.333 111.221 156.165V156.438H107.607V155.881C107.607 155.588 107.555 155.305 107.451 155.032C107.354 154.758 107.158 154.622 106.865 154.622C106.37 154.622 106.123 154.882 106.123 155.403C106.123 155.93 106.331 156.344 106.748 156.643L108.916 158.225C109.593 158.713 110.16 159.293 110.615 159.963C111.077 160.634 111.309 161.526 111.309 162.639C111.309 164.019 110.915 165.071 110.127 165.793C109.346 166.516 108.271 166.877 106.904 166.877ZM115.363 151.174V148.264H118.859V151.174H115.363ZM115.363 166.721V152.073H118.859V166.721H115.363ZM127.26 166.877C124.369 166.877 122.924 165.413 122.924 162.483V161.321H126.439V163.04C126.439 163.372 126.505 163.632 126.635 163.821C126.765 164.01 126.973 164.104 127.26 164.104C127.768 164.104 128.021 163.723 128.021 162.961C128.021 162.323 127.888 161.848 127.621 161.536C127.354 161.217 127.029 160.911 126.645 160.618L124.779 159.182C124.193 158.726 123.747 158.245 123.441 157.737C123.135 157.229 122.982 156.523 122.982 155.618C122.982 154.778 123.181 154.084 123.578 153.538C123.982 152.991 124.512 152.584 125.17 152.317C125.834 152.05 126.55 151.917 127.318 151.917C130.157 151.917 131.576 153.333 131.576 156.165V156.438H127.963V155.881C127.963 155.588 127.911 155.305 127.807 155.032C127.709 154.758 127.514 154.622 127.221 154.622C126.726 154.622 126.479 154.882 126.479 155.403C126.479 155.93 126.687 156.344 127.104 156.643L129.271 158.225C129.949 158.713 130.515 159.293 130.971 159.963C131.433 160.634 131.664 161.526 131.664 162.639C131.664 164.019 131.27 165.071 130.482 165.793C129.701 166.516 128.627 166.877 127.26 166.877ZM138.746 166.877C137.802 166.877 137.164 166.679 136.832 166.282C136.507 165.878 136.344 165.263 136.344 164.436V155.305H135.357V152.639H136.344V149.534H139.742V152.639H140.729V155.305H139.742V163.616C139.742 163.857 139.781 164.026 139.859 164.124C139.938 164.221 140.087 164.27 140.309 164.27C140.465 164.27 140.605 164.257 140.729 164.231V166.614C140.65 166.64 140.406 166.689 139.996 166.76C139.586 166.838 139.169 166.877 138.746 166.877Z" fill="white"/>
<path d="M62.2203 63.3436L53.8124 83.0663L63.1616 85.2256L69.1479 64.4334L62.2203 63.3436Z" fill="white"/>
<path d="M70.9053 59.1489L64.3242 58.0607L72.0182 42.922L74.6147 43.6395L77.2112 44.3569L70.9053 59.1489Z" fill="white"/>
<path d="M80.0059 39.4292L74.6245 39.0984C76.4647 35.859 88.7017 18.0108 96.0808 10.5665L80.0059 39.4292Z" fill="white"/>
<path d="M80.6958 117.063C79.8627 117.341 69.9235 163.178 66.0249 182.215L68.0919 144.883L70.3195 112.076C72.1623 87.7365 89.7168 38.2025 92.5126 33.1337C93.2329 27.1382 110.359 -4.21958 108.257 0.710975C105.63 4.93354 99.5442 36.8117 96.9345 51.8556L101.491 40.5844C110.804 50.8595 129.775 71.5524 131.159 72.1232C132.543 72.694 131.713 77.5363 131.124 79.8861L80.6339 130.824C81.0017 126.121 81.529 116.784 80.6958 117.063Z" fill="#3CB554"/>
<path d="M52.2444 123.287L42.9285 113.717L51.7085 88.3506L61.0561 90.8627L52.2444 123.287Z" fill="#F4F4F4"/>
<path d="M33.4159 70.977L22.2302 91.7458C21.7082 105.035 22.4262 125.198 29.4743 99.5414C38.2845 67.4702 94.7308 4.49749 91.944 5.5774C91.5968 5.71196 77.8087 14.2478 71.4344 18.5711C72.2474 17.6338 73.8741 15.618 73.8767 15.0535C73.8792 14.4889 73.8863 12.9064 72.8495 12.2259L67.6502 12.2025C48.7286 31.7602 10.7469 70.8749 10.1923 70.8724C9.63771 70.8699 9.47469 76.2798 9.4625 78.9851L18.7799 88.2016L33.4159 70.977Z" fill="#3CB554" stroke="#3CB554"/>
</svg>
